<?xml version="1.0" encoding="UTF-8" standalone="no"?>
<svg
   version="1.1"
   id="Layer_1"
   x="0px"
   y="0px"
   width="100%"
   viewBox="0 0 256 256"
   enable-background="new 0 0 256 256"
   xml:space="preserve"
   sodipodi:docname="Untitled.svg"
   inkscape:version="1.3.1 (9b9bdc1480, 2023-11-25, custom)"
   xmlns:inkscape="http://www.inkscape.org/namespaces/inkscape"
   xmlns:sodipodi="http://sodipodi.sourceforge.net/DTD/sodipodi-0.dtd"
   xmlns="http://www.w3.org/2000/svg"
   xmlns:svg="http://www.w3.org/2000/svg"><defs
   id="defs83" /><sodipodi:namedview
   id="namedview83"
   pagecolor="#ffffff"
   bordercolor="#000000"
   borderopacity="0.25"
   inkscape:showpageshadow="2"
   inkscape:pageopacity="0.0"
   inkscape:pagecheckerboard="0"
   inkscape:deskcolor="#d1d1d1"
   inkscape:zoom="3.1819805"
   inkscape:cx="49.183205"
   inkscape:cy="124.45079"
   inkscape:window-width="2560"
   inkscape:window-height="1370"
   inkscape:window-x="0"
   inkscape:window-y="33"
   inkscape:window-maximized="1"
   inkscape:current-layer="Layer_1" />

<path
   fill="#2A3145"
   opacity="1.000000"
   stroke="none"
   d=" M87.562378,157.761932   C88.412369,160.705536 87.696999,163.554047 88.750870,166.592499   C87.180069,169.120087 83.700493,165.882278 82.796944,168.922989   C82.156029,171.079910 84.461868,172.756088 84.846359,174.840210   C85.448952,178.106583 85.625702,181.637955 90.576172,181.777435   C91.239479,183.424194 91.635033,184.844315 91.964340,186.631958   C91.187897,189.136490 90.701668,191.219910 93.481461,192.794891   C98.462730,207.194443 105.274246,220.305130 114.243828,232.704529   C113.659615,233.912720 112.635567,234.062561 111.200974,234.149567   C110.561600,234.121780 110.307755,234.093964 109.680855,233.992065   C108.820427,233.796448 108.333328,233.673798 107.479294,233.481628   C68.870712,223.599670 42.077728,200.743973 27.782194,163.697723   C26.652487,160.770126 25.430470,157.814194 25.627415,154.182343   C25.762915,151.704163 26.933626,150.060349 28.069517,148.433487   C42.127777,128.298874 60.264343,113.203331 83.485794,103.938629   C85.804596,105.672249 85.730019,105.656250 85.129692,108.454262   C84.230240,112.646446 81.028099,115.979637 81.013847,120.577988   C81.006035,123.100380 81.121986,124.795059 83.551315,126.342407   C86.968727,128.519104 86.895126,131.382507 83.348839,133.781586   C80.504066,135.706055 80.084854,137.753784 81.639450,140.462723   C83.657326,143.978928 83.412727,147.817596 83.334961,151.607437   C83.273628,154.595963 84.025436,156.834747 87.562378,157.761932  z"
   id="path2" />
<path
   fill="#2A3245"
   opacity="1.000000"
   stroke="none"
   d=" M71.912430,37.420410   C80.814102,37.254387 88.092636,41.463276 95.683922,44.532238   C99.329445,46.006027 102.665886,48.244308 106.371689,50.406902   C106.202080,55.024498 105.154396,59.236965 103.297653,63.160027   C101.720062,66.493294 100.136360,69.728493 100.175232,73.544701   C100.192970,75.286507 99.363930,76.875053 97.861534,77.765251   C91.671669,81.432846 91.668236,86.624992 94.038345,92.476479   C94.351700,93.250099 94.579315,94.049423 94.374878,95.279587   C76.437210,101.500328 60.063499,109.932266 45.955776,122.502869   C38.351753,129.278397 31.646898,136.821976 25.478317,145.330994   C22.439734,145.078873 22.755148,142.666733 22.504152,140.852188   C19.882105,121.896439 22.742922,103.633873 30.144161,86.114532   C37.964176,67.603912 50.053295,52.363255 66.364853,40.538765   C67.986595,39.363136 69.625641,38.224430 71.912430,37.420410  z"
   id="path3" />
<path
   fill="#2D3A44"
   opacity="1.000000"
   stroke="none"
   d=" M122.216095,234.395981   C115.387245,229.547760 111.924324,222.594223 108.129295,216.059189   C96.962769,196.830475 91.987686,175.865433 91.726250,153.714142   C91.714478,152.716629 91.698952,151.704742 91.844185,150.723068   C92.081299,149.120438 92.449501,147.537186 92.918663,145.150970   C103.054344,154.625839 113.616005,162.556946 125.833740,168.636856   C128.681595,172.567368 131.460129,175.839935 136.146210,177.271759   C139.805344,178.389771 139.581070,181.722092 138.645401,184.794693   C138.164780,186.372955 136.994980,187.692184 136.701035,189.357483   C136.171036,192.360153 136.174179,195.110352 140.077621,195.817993   C140.564682,195.906296 141.343369,196.000000 141.439194,196.322327   C143.677521,203.850357 155.202805,204.985153 154.098663,214.848175   C153.546600,219.779617 156.249420,222.026779 160.958679,222.631287   C163.027008,222.896790 165.270279,223.390427 166.505432,225.975067   C166.516922,226.914139 166.345856,227.416443 165.804535,228.194672   C162.631027,231.113846 158.602310,231.010101 154.916321,232.829315   C151.787003,233.500809 148.985336,233.663422 145.827042,234.375793   C137.810562,235.797699 130.221832,236.318893 122.216095,234.395981  z"
   id="path4" />
<path
   fill="#7D8EC3"
   opacity="1.000000"
   stroke="none"
   d=" M71.874176,37.057037   C67.052902,41.546520 61.499321,45.514408 56.692673,50.241756   C30.115486,76.380470 18.738176,107.785889 24.887360,145.265244   C19.935015,151.820999 16.635963,159.263794 12.667097,167.201889   C9.413876,160.078934 8.044065,153.147507 7.171669,146.246475   C1.801835,103.768700 14.255942,67.425171 45.061787,37.464886   C47.944332,34.661457 50.992908,33.190338 54.867889,33.880489   C60.409611,34.867485 66.097214,35.063469 71.874176,37.057037  z"
   id="path5" />
<path
   fill="#7C8EC3"
   opacity="1.000000"
   stroke="none"
   d=" M25.375984,153.982605   C29.901848,166.408508 34.734562,178.707916 42.699883,189.544250   C58.991398,211.707901 80.544525,225.814148 107.699448,232.135010   C108.373001,232.434219 108.657295,232.610062 109.180161,232.843597   C109.426949,232.887970 109.714844,232.758804 109.859077,232.822739   C109.855278,238.772614 113.746140,242.293335 117.563408,245.881149   C118.572708,246.829788 119.045120,248.036362 118.223404,249.714874   C95.994827,248.647491 76.191795,241.005371 58.266109,228.504593   C40.303669,215.978165 26.718418,199.646942 17.228922,179.850006   C15.485808,176.213531 15.249118,173.102158 16.933527,169.529663   C19.412468,164.271957 21.903648,159.033691 25.375984,153.982605  z"
   id="path6" />
<path
   fill="#2e403e"
   opacity="1"
   stroke="none"
   d="m 166.10971,227.64112 c -2.03722,-4.27513 -5.97305,-3.75304 -9.03642,-4.41141 -3.18962,-0.68549 -4.08817,-1.91816 -4.13832,-4.90233 -0.0524,-3.11908 -0.65783,-6.22626 -0.96079,-9.34456 -0.2294,-2.36119 -1.7133,-3.01958 -3.7884,-2.97734 -3.49834,0.0712 -5.25217,-1.62166 -5.18877,-5.14131 0.037,-2.05555 -0.59342,-3.40786 -2.92073,-3.86734 -5.07685,-1.00232 -6.89185,-5.85764 -4.05629,-10.45104 3.45212,-5.59218 2.7742,-6.38177 -3.04404,-8.797 -3.14462,-1.30538 -6.5078,-3.77446 -6.95487,-8.44343 10.66715,4.16727 21.47916,8.24966 32.9625,10.24861 2.10846,0.36705 4.22183,0.70589 6.67447,1.26292 5.63306,6.27428 10.43825,12.68448 14.10678,19.88753 1.21837,2.39227 3.44832,2.78131 5.79904,3.13704 4.38057,0.66289 7.67174,2.82471 9.1817,7.56708 -0.31277,1.9976 -1.72604,2.6754 -3.08523,3.87008 -4.31635,3.25158 -8.83896,5.49268 -13.37976,8.40607 -4.10812,1.39359 -7.53744,4.64105 -12.17087,3.95643 z"
   id="path7"
   sodipodi:nodetypes="csssssssscscsscccc" />
<path
   fill="#2D3E3C"
   opacity="1.000000"
   stroke="none"
   d=" M153.094711,90.261307   C146.371109,81.472504 140.070190,72.378624 131.816986,64.433098   C132.668030,60.304516 133.786575,56.678123 138.776260,56.442566   C140.802536,56.346909 141.421371,54.703270 141.554306,52.886059   C141.700089,50.893497 141.549423,48.886311 141.827057,46.902161   C142.130524,44.733166 142.376770,41.898331 144.336136,41.161762   C151.575394,38.440380 151.717209,31.057245 155.331757,25.515533   C155.932907,24.810589 156.378113,24.545599 157.280884,24.355347   C162.378693,25.374617 166.870636,27.106697 171.731873,28.916813   C176.599319,31.178469 181.072098,33.389126 185.292740,36.059364   C187.392868,37.388020 189.556152,38.720490 190.466309,41.664341   C190.127060,45.528820 187.928024,47.352203 184.725739,48.047043   C181.744812,48.693844 179.943192,50.663277 178.005386,52.842293   C173.723450,57.657272 169.977356,62.999802 164.745834,66.928001   C163.531052,67.840149 162.352295,68.942482 161.916382,70.359535   C159.799225,77.241760 153.419815,82.273651 153.094711,90.261307  z"
   id="path8" />
<path
   fill="#2C3943"
   opacity="1.000000"
   stroke="none"
   d=" M94.674156,95.632622   C91.911377,91.412453 89.793549,87.128235 91.833488,82.093018   C92.019073,81.634911 91.974197,80.946136 92.294350,80.699791   C102.022171,73.214897 101.011734,60.808811 106.246857,50.895370   C116.984886,56.270149 126.081444,63.420361 133.524353,72.639832   C135.164902,74.671967 137.204834,76.381683 139.195877,78.556152   C139.578568,83.329330 138.345383,87.320923 135.249542,91.025146   C125.178719,91.782280 115.338913,90.956383 105.707153,93.227524   C102.174881,94.060417 98.624718,94.817375 94.674156,95.632622  z"
   id="path9" />
<path
   fill="#2B3840"
   opacity="1.000000"
   stroke="none"
   d=" M155.550629,24.697361   C156.009399,30.248222 151.333176,33.784122 151.243027,38.916431   C151.236053,39.313393 149.948883,39.903282 149.191925,40.037231   C143.619492,41.023281 142.839371,45.069347 143.018295,49.659321   C143.199097,54.297405 143.782349,58.859268 136.579376,58.182095   C132.768417,57.823811 135.296158,63.029842 132.059067,64.041061   C124.188812,57.929508 116.766830,51.660435 108.090240,46.552292   C106.363274,43.454304 107.795570,41.717445 110.322723,41.034309   C113.572273,40.155899 115.486015,38.390499 116.058914,35.070515   C116.228394,34.088375 116.839333,32.940960 117.751930,32.760204   C123.650063,31.591978 124.655785,26.975847 125.749786,21.858135   C127.292976,20.735678 128.719879,20.615067 130.598114,20.571976   C134.461304,20.490448 137.891708,20.425116 141.720032,20.790318   C144.816925,21.775084 147.718262,21.441547 150.768768,22.349152   C151.506287,22.688068 151.903687,22.909389 152.573090,23.292679   C153.230072,23.605850 153.611084,23.760345 154.287262,23.984379   C154.764221,24.139223 154.951935,24.209864 155.550629,24.697361  z"
   id="path10" />
<path
   fill="#365d5f"
   opacity="1"
   stroke="none"
   d="m 228.24287,167.69409 c -2.29232,2.08594 -5.25878,2.67227 -8.09136,3.50289 -8.43385,-6.29328 -14.90781,-13.58968 -19.3398,-22.96291 -1.24112,-2.62482 -2.17783,-5.17951 -2.13861,-8.09433 0.0582,-4.32968 0.0645,-8.65218 -0.78585,-12.94184 -0.3916,-1.97554 -0.39291,-4.15319 0.77469,-5.83284 3.09775,-4.45615 4.0679,-9.8169 6.50107,-14.55357 2.21999,-4.3217 4.27605,-8.644887 8.68898,-11.283475 1.41829,-0.84803 2.55929,-2.192734 3.32126,-3.682945 1.79783,-3.516113 4.71975,-4.995369 8.89178,-5.144753 0.61428,-0.123016 0.86363,-0.147766 1.47867,-0.09368 1.22563,0.675758 1.53777,1.624336 2.07236,2.85424 0.22529,0.560952 0.31083,0.787491 0.51413,1.358185 0.58035,2.226898 1.51982,4.022522 0.95126,6.361916 -3.09059,2.107147 -5.44934,4.356473 -6.70465,7.618043 -0.35799,0.93011 -0.90756,1.94347 -1.78467,2.34824 -5.10766,2.35718 -7.57567,6.587 -10.06691,11.49777 -2.29422,4.52241 -2.96908,8.61978 -1.84984,13.23153 0.54731,2.25512 1.38271,4.45698 1.66135,6.76706 1.28267,10.63327 5.70174,18.59548 17.56018,20.83621 0.78108,0.87834 0.95778,1.61482 0.93283,2.78555 -0.52221,2.10706 -1.25738,3.70949 -2.58687,5.42871 z"
   id="path11"
   sodipodi:nodetypes="ccssscssscccccscsscccc" />
<path
   fill="#324A47"
   opacity="1.000000"
   stroke="none"
   d=" M198.313477,54.723083   C198.618057,58.346661 198.651962,61.697426 198.678406,65.505081   C198.600861,66.283417 198.482483,66.585983 198.433899,67.083267   C198.551956,67.296860 198.383331,67.709915 198.212402,67.853241   C197.896866,68.134377 197.752274,68.272202 197.702179,68.694374   C197.728592,70.440315 197.660477,71.901917 197.429565,73.694611   C190.348053,72.318176 188.791550,77.700249 185.494736,81.927132   C179.882339,89.122856 177.652237,97.740288 173.519714,105.509766   C171.638916,109.045792 170.319336,112.757401 169.442215,116.662216   C169.067657,118.329651 169.072144,120.509666 166.109039,120.270065   C162.727386,112.693382 159.660385,105.306442 156.505371,97.557144   C160.742416,93.494492 163.352280,88.916794 164.013245,83.178070   C164.316223,80.547569 166.057053,78.733604 168.451996,77.556770   C173.662674,74.996338 177.038422,70.901848 178.563828,65.290558   C179.560913,61.622730 181.924820,59.052452 185.521408,58.150013   C189.755569,57.087593 193.069061,52.914661 198.313477,54.723083  z"
   id="path12" />
<path
   fill="#7D8FC3"
   opacity="1.000000"
   stroke="none"
   d=" M81.190254,34.520840   C73.278679,31.245832 64.856506,30.752085 55.667847,29.012018   C74.853851,14.734696 95.551353,7.430066 118.602737,5.239028   C121.116447,8.458843 119.134628,10.974131 117.646027,13.499521   C115.705467,16.791672 112.597168,19.229288 110.593353,22.952393   C108.602516,24.945532 106.246834,25.209328 104.038925,25.799137   C96.226486,27.886101 88.593613,30.442110 81.190254,34.520840  z"
   id="path13" />
<path
   fill="#2E4340"
   opacity="1.000000"
   stroke="none"
   d=" M198.677979,54.590450   C192.460617,55.273323 187.696472,59.106258 182.319199,61.317867   C181.044312,61.842205 180.281830,63.306541 179.964111,64.928123   C178.663803,71.564423 174.770462,76.276855 168.607224,78.913361   C165.800766,80.113899 165.371490,82.286247 164.951294,84.812370   C164.095963,89.954483 162.902908,94.962494 156.804565,97.128983   C155.219009,95.172623 154.020645,93.150452 152.803558,90.801712   C153.203415,87.536972 152.836563,84.545036 153.827301,81.615173   C154.385757,79.963676 154.616486,78.458076 156.562607,77.908295   C157.128891,77.748322 157.907501,77.201843 158.011551,76.710335   C160.530426,64.811035 172.547791,60.206158 178.070068,50.595230   C179.255966,48.531307 181.204819,46.849457 184.161560,46.900520   C187.219940,46.953342 188.706543,44.634140 190.178482,41.940079   C194.291534,41.885979 196.274673,44.265778 197.908463,47.632004   C199.414764,49.843948 198.653107,52.053093 198.677979,54.590450  z"
   id="path14" />
<path
   fill="#2B3446"
   opacity="1.000000"
   stroke="none"
   d=" M81.327194,34.890457   C79.998779,32.128963 82.499939,32.340157 83.683044,31.755047   C91.812820,27.734446 100.486710,25.277914 109.628693,23.015671   C111.670128,21.506275 113.726479,21.206682 116.137802,20.798897   C119.000763,20.581018 121.437073,21.470739 124.305771,21.123531   C124.920120,21.230953 125.159416,21.307297 125.698296,21.612110   C125.996033,23.667746 126.071136,25.498947 125.975464,27.321186   C125.803696,30.592867 123.982269,32.601738 120.783401,32.927605   C118.420258,33.168339 117.061844,33.926899 116.982773,36.479256   C116.870789,40.094151 114.863327,41.908905 111.295006,42.004353   C109.009872,42.065479 108.021416,43.300472 107.927002,45.875771   C99.370979,42.038132 90.857521,37.771744 81.327194,34.890457  z"
   id="path15" />
<path
   fill="#344F4C"
   opacity="1.000000"
   stroke="none"
   d=" M165.751419,120.487549   C166.620804,119.930878 167.615326,119.757607 167.760406,118.844856   C169.179230,109.917976 174.692444,102.521332 177.249344,94.250839   C179.694000,86.343376 185.712051,81.401482 189.040527,74.498764   C191.022461,70.388550 193.791901,70.752647 196.908783,73.981758   C196.791992,76.757439 196.317215,79.489182 195.681839,82.599426   C193.234192,84.389412 191.619232,86.225067 190.289703,88.694832   C188.413498,92.180099 186.921646,95.903725 184.484924,99.103737   C183.041550,100.999237 182.232574,103.350639 182.712036,105.681526   C183.404495,109.048004 182.819794,112.248756 182.381622,115.821350   C181.485809,118.022163 180.620636,120.013153 179.402023,121.757195   C176.296661,126.201523 173.033432,130.535553 169.149033,135.850006   C167.851105,130.208313 166.779770,125.551544 165.751419,120.487549  z"
   id="path16" />
<path
   fill="#2D3647"
   opacity="1.000000"
   stroke="none"
   d=" M87.940292,157.549118   C82.954079,159.639755 81.856651,157.111084 81.964340,152.857391   C82.084389,148.115479 82.372803,143.475342 79.414879,139.035065   C78.002022,136.914154 78.235458,133.333923 82.543503,132.890427   C84.053993,132.734940 84.859802,131.701401 84.917946,130.177444   C84.984535,128.431793 84.162003,127.285202 82.406708,127.072258   C78.847168,126.640427 79.543648,124.513123 79.391663,121.758224   C79.030403,115.210510 84.662575,110.660957 84.123787,104.133789   C89.247063,101.005676 95.135361,99.681488 101.830772,98.049156   C92.553169,117.160736 88.047562,136.626266 87.940292,157.549118  z"
   id="path17" />
<path
   fill="#355454"
   opacity="1"
   stroke="none"
   d="m 208.80648,174.07619 c -4.43498,1.41509 -6.98384,1.12108 -11.63568,2.16027 -0.29283,0.0471 -1.82299,0.32267 -2.92565,0.53274 -0.85505,0.18832 -1.13501,0.30416 -1.91321,0.28167 -2.1686,-3.19783 -4.4823,-5.79982 -7.12068,-8.36609 -3.94417,-3.83638 -5.94734,-9.20625 -6.39604,-14.71051 -0.38958,-4.77874 -0.27762,-9.50892 -2.6848,-13.91311 -0.85517,-1.56462 -0.62503,-3.5493 -0.33193,-5.76758 3.42513,-5.62117 6.86655,-10.8437 10.57768,-16.26462 3.81504,0.0557 2.79041,2.6743 2.44664,4.51977 -1.57283,8.44332 -1.10463,16.56869 3.32641,24.5842 0.43161,0.82766 0.57261,1.33475 0.64,2.24973 -0.99729,4.54985 1.08297,7.36511 3.00987,11.00105 3.12906,5.90439 8.77321,8.9017 13.00739,13.69248 z"
   id="path18"
   sodipodi:nodetypes="ccccssscccccsc" />
<path
   fill="#314845"
   opacity="1.000000"
   stroke="none"
   d=" M194.271973,212.063904   C192.208603,207.461792 189.101486,204.870575 184.218735,205.033432   C181.291885,205.131058 179.013992,203.677856 178.436630,201.277588   C177.721085,198.302902 175.325882,196.656250 174.250626,194.363480   C172.061935,189.696487 167.736374,186.585709 166.004166,181.386963   C170.737823,181.087448 175.490997,180.894714 180.588226,181.951645   C182.062241,183.159973 183.429825,184.091431 184.790268,184.345901   C192.731918,185.831421 196.956985,192.630966 203.014160,196.785141   C205.551819,198.525558 204.369293,200.914291 204.075043,203.497528   C203.207687,206.613022 200.797028,208.015717 198.687347,210.138672   C197.257828,211.251602 196.094559,212.121262 194.271973,212.063904  z"
   id="path19" />
<path
   fill="#345a5b"
   opacity="1"
   stroke="none"
   d="m 227.16449,86.606071 c -0.22453,0.662613 -0.21901,1.211617 -0.38992,1.273537 -13.48719,4.885727 -19.8947,15.730552 -23.72974,28.551912 -0.91658,3.06437 -4.27541,4.63876 -4.11276,8.28644 0.1553,3.48291 1.61928,6.80502 1.07046,10.34146 -1.39257,8.97317 2.53524,16.58484 8.2258,22.40896 3.49091,3.57282 5.1158,9.3754 10.84535,10.79105 0.471,0.11635 0.65783,1.38281 1.02535,2.49634 0.0487,0.38145 -0.009,0.34723 0.0223,0.33716 -0.15322,0.095 -0.0342,-0.18811 -0.88377,0.3531 -1.14194,0.10885 -2.00536,0.5042 -3.0744,0.77724 -1.71287,-0.5489 -3.34319,-0.0951 -3.87653,-1.6176 -2.13355,-6.09047 -8.26839,-8.43254 -11.92681,-13.11441 -5.15222,-6.59352 -7.57202,-13.89038 -7.73823,-22.16758 -0.18138,-9.03168 -0.007,-17.79376 4.55391,-26.15155 3.56001,-6.52399 7.44133,-12.542285 13.44328,-16.974826 2.09094,-1.544182 3.85313,-3.167565 4.35512,-6.238404 0.31596,-0.835678 0.5829,-1.258224 1.20459,-1.859138 2.1459,-0.997452 4.98774,0.221519 5.87597,-3.195343 0.32013,-0.490288 0.47327,-0.672524 0.9541,-1.008026 3.18931,1.084167 4.13706,3.488327 4.15592,6.709678 z"
   id="path20"
   sodipodi:nodetypes="ccsssssccccsssssccccc" />
<path
   fill="#6CC5D1"
   opacity="1.000000"
   stroke="none"
   d=" M248.557037,101.772995   C252.227875,116.804146 253.006088,131.675507 249.866989,146.981354   C244.163147,145.665482 239.147263,143.374802 237.189163,137.284668   C236.740417,135.888947 236.361404,134.467484 235.314972,132.875381   C234.339203,129.709396 234.447617,126.895683 235.031448,123.665573   C237.640274,119.817253 238.649200,115.882668 239.154800,111.731972   C239.537155,108.593048 240.473465,105.632477 242.589737,103.127632   C244.149429,101.281563 245.870087,100.420883 248.557037,101.772995  z"
   id="path21" />
<path
   fill="#355859"
   opacity="1"
   stroke="none"
   d="m 215.69341,84.793259 c 0.89077,4.208961 -0.70067,7.235199 -4.43877,8.475685 -4.43636,1.472198 -5.94286,5.762237 -8.20441,8.797156 -4.76585,6.39561 -8.91348,13.63037 -8.98042,22.05357 -0.0679,8.54586 -1.20392,17.24265 2.88525,25.40006 2.62154,5.22966 5.60456,10.04121 10.92598,12.87906 1.70372,0.90858 2.87447,1.94084 3.41232,3.93164 0.65297,2.41693 1.99196,4.52656 4.73052,5.82937 -1.95818,0.91094 -4.54446,1.43636 -7.0751,1.9898 -1.9409,-2.41393 -3.21544,-4.55794 -5.75306,-6.03887 -1.29094,-0.75337 -2.59103,-1.80578 -3.15493,-3.14621 -2.13036,-5.0639 -6.18958,-9.02318 -8.02274,-14.60432 -0.0186,-0.80455 -0.0186,-1.24902 -0.0186,-2.02686 -4.68413,-9.70654 -3.77309,-19.60402 -2.73198,-29.51295 0.3792,-3.60902 3.45996,-6.0385 4.23274,-9.91824 0.21839,-1.77334 0.41378,-3.12225 1.42041,-4.62454 3.95764,-8.47396 10.84836,-13.616302 17.77574,-18.729751 0.81693,-0.603012 1.59491,-1.193931 2.99708,-0.7546 z"
   id="path22"
   sodipodi:nodetypes="cssssssccssccsccsc" />
<path
   fill="#324642"
   opacity="1.000000"
   stroke="none"
   d=" M169.114578,176.590714   C157.108047,175.862091 145.727310,172.891220 133.941483,167.843246   C143.497009,162.826096 151.644913,157.256241 159.540985,150.720398   C162.142731,153.187958 161.299988,156.719635 162.567291,159.799561   C164.807343,165.243607 168.673889,170.110672 169.114578,176.590714  z"
   id="path23" />
<path
   fill="#334e4b"
   opacity="1"
   stroke="none"
   d="m 175.48508,134.03891 c 1.33972,5.37427 4.66386,10.18927 4.61859,16.12878 -0.0603,7.91956 1.58328,15.30335 9.26329,19.87876 2.03821,1.21428 3.23403,4.12929 3.10475,7.00481 -2.01177,0.19972 -5.10642,0.20611 -7.8577,0.35356 -9.15886,-1.82935 -10.08067,-9.67785 -12.66931,-16.12587 -0.92154,-2.2954 -1.18725,-5.00786 -2.80922,-6.85956 -3.47218,-3.96395 -2.90846,-7.75008 -0.25493,-12.08979 2.11849,-2.96333 4.21294,-5.55503 6.60453,-8.29069 z"
   id="path24"
   sodipodi:nodetypes="cssccsscc" />
<path
   fill="#6D948C"
   opacity="1.000000"
   stroke="none"
   d=" M198.260559,47.370029   C195.843872,45.842430 193.475433,43.877758 190.807251,41.828049   C185.395294,36.542255 178.771866,33.791927 172.200363,30.331284   C170.729752,26.015400 174.006821,24.590471 176.452545,23.118786   C179.072357,21.542341 181.746796,19.991463 184.859573,18.742386   C192.605103,20.743616 196.086975,25.709442 196.721756,33.093735   C197.119308,37.718109 197.771103,42.320625 198.260559,47.370029  z"
   id="path25" />
<path
   fill="#365452"
   opacity="1.000000"
   stroke="none"
   d=" M199.311707,87.228531   C201.779007,75.424278 202.706329,63.650181 202.890656,51.402893   C207.632431,51.165676 208.152008,56.050144 211.450989,58.227463   C214.901123,62.322552 217.805450,66.380539 220.609741,70.960220   C220.980118,72.039055 221.034714,72.791542 220.898270,73.934174   C219.692719,77.315483 217.350372,78.039764 214.411316,77.859711   C211.439560,77.677666 209.193939,78.780754 208.324326,81.865440   C207.072845,86.304787 204.002090,87.894814 199.311707,87.228531  z"
   id="path26" />
<path
   fill="#7790b0"
   opacity="1"
   stroke="none"
   d="m 121.89672,234.4942 c 7.6995,-0.64264 15.60404,0.0155 23.71525,-1.27449 5.30465,3.53154 8.32315,8.60999 10.8976,14.07099 -2.084,0.82446 -4.09909,1.40903 -6.05028,1.85336 -14.94032,3.94654 -20.78845,-6.00585 -28.56257,-14.64986 z"
   id="path27"
   sodipodi:nodetypes="ccccc" />
<path
   fill="#344E4C"
   opacity="1.000000"
   stroke="none"
   d=" M203.317841,204.130508   C203.482269,200.578888 203.109604,198.243790 199.639420,195.672592   C194.540909,191.894882 190.540863,186.692688 183.822861,185.349030   C182.561752,185.096786 181.387497,184.271408 181.042038,182.412506   C187.732239,181.425110 194.466156,180.789719 201.621384,180.233215   C202.207581,180.350555 202.372498,180.389023 202.760864,180.306702   C203.143936,180.101974 203.303574,180.018051 203.732758,179.957291   C206.075806,182.562576 208.614258,184.462524 211.803986,185.487671   C213.522919,186.040131 215.114975,186.844650 215.846222,189.086060   C215.977249,190.138062 215.863297,190.816589 215.433258,191.758896   C215.000885,192.381577 214.717255,192.702026 214.208160,193.230621   C213.727844,193.746399 213.450378,194.033615 212.976639,194.535049   C212.418121,195.209885 212.103073,195.698303 211.743973,196.515900   C210.729385,198.535080 209.228806,199.763565 207.722931,201.418030   C206.330811,202.706131 205.316101,203.978119 203.317841,204.130508  z"
   id="path28" />
<path
   fill="#324946"
   opacity="1.000000"
   stroke="none"
   d=" M168.607620,142.103943   C169.663834,142.456436 170.336395,143.416107 169.766190,144.001236   C166.069046,147.795135 168.536835,150.757065 170.489197,154.269547   C172.524704,157.931625 173.937943,162.025818 175.061478,166.086548   C176.438660,171.063889 179.265167,174.553131 184.003906,177.088287   C179.373718,179.254257 174.654343,176.490723 169.432648,177.044281   C167.330139,171.940414 163.951813,167.757019 162.514267,162.538635   C161.498642,158.851868 158.067917,155.808029 159.897552,151.002777   C162.678162,147.801300 165.494415,145.025620 168.607620,142.103943  z"
   id="path29" />
<path
   fill="#788FB7"
   opacity="1.000000"
   stroke="none"
   d=" M126.416702,21.797375   C125.791878,21.766260 125.585869,21.691938 125.067657,21.515358   C122.395142,22.075966 120.009575,21.310356 117.335907,21.725782   C114.948898,22.266861 112.867554,22.620914 110.389687,22.927029   C109.895424,18.454601 114.221153,16.894201 116.082932,13.691360   C117.521942,11.215816 118.795845,8.900067 119.007629,5.677999   C125.015472,5.234607 131.020325,5.164752 137.479034,5.196327   C138.551147,7.285842 137.641006,9.014447 136.439224,10.265009   C133.568619,13.252146 132.317291,16.881069 131.218155,21.005264   C129.575256,21.413607 128.205383,21.583887 126.416702,21.797375  z"
   id="path30" />
<path
   fill="#6BBEC8"
   opacity="1.000000"
   stroke="none"
   d=" M248.864410,101.617493   C243.386856,101.442635 242.245972,105.431511 240.969574,109.465523   C239.565674,113.902588 240.992737,119.294449 236.224182,122.865677   C231.790848,120.617744 234.393784,116.457169 233.211685,112.872925   C232.642593,110.163979 232.050858,107.870056 231.691422,105.138809   C231.599243,103.993271 231.536255,103.233421 231.202698,102.129486   C230.908417,100.739609 230.894089,99.720497 231.209503,98.334412   C233.343231,94.545647 236.812607,92.303619 238.691467,88.707657   C239.569946,87.026329 241.603470,86.653244 243.889191,86.643372   C246.943970,91.140266 247.375534,96.347374 248.864410,101.617493  z"
   id="path31" />
<path
   fill="#6BB1B6"
   opacity="1.000000"
   stroke="none"
   d=" M220.256317,74.023300   C220.067642,73.046181 219.958847,72.404488 219.783173,71.443344   C219.993011,66.784042 224.083023,65.684258 226.555878,63.250378   C227.554337,62.267647 229.072205,61.711437 230.735321,60.921158   C235.248154,64.504868 237.059448,69.636765 239.632141,74.671036   C239.022537,79.777504 236.568634,83.055679 231.793991,84.414619   C230.285370,84.843987 229.939148,86.670555 228.223358,87.167442   C227.899475,87.056976 227.456985,87.010689 227.236877,86.978867   C225.898376,84.695816 224.779984,82.444603 223.393646,79.971703   C221.355637,78.387672 220.816437,76.388451 220.256317,74.023300  z"
   id="path32" />
<path
   fill="#718F9F"
   opacity="1.000000"
   stroke="none"
   d=" M155.336670,24.577023   C154.617264,24.614531 154.134796,24.654690 153.289810,24.662851   C152.755875,24.561579 152.584457,24.492306 152.244446,24.202833   C149.242767,23.500010 146.409683,23.017385 143.278427,22.289917   C142.536301,18.581179 145.031891,16.633476 147.179260,14.830639   C149.686157,12.725982 152.030182,10.483221 154.684189,8.057097   C160.461548,8.360250 165.485687,10.365183 170.855011,12.341692   C172.330368,14.698787 170.809296,15.854153 169.522415,17.169279   C166.367706,20.393188 162.310577,22.327591 158.324646,24.985802   C157.518005,25.081545 157.072861,25.069906 156.294647,25.086243   C155.961578,25.114220 156.001801,24.920996 156.013214,24.822975   C156.024643,24.724957 155.573593,24.579674 155.336670,24.577023  z"
   id="path33" />
<path
   fill="#6AA8A7"
   opacity="1.000000"
   stroke="none"
   d=" M231.063141,60.490372   C229.463913,64.512451 225.282776,65.210075 222.718277,67.883194   C221.859467,68.778366 221.170609,69.790840 220.034164,70.912506   C216.889191,67.320961 214.062088,63.518036 211.093124,59.412601   C209.275116,55.731056 210.763977,52.861824 212.984329,50.652267   C215.705826,47.944035 219.189819,48.099205 223.049728,49.744446   C226.835861,52.688175 228.899872,56.439297 231.063141,60.490372  z"
   id="path34" />
<path
   fill="#6aa8a7"
   opacity="1"
   stroke="none"
   d="m 211.48854,195.13593 c 0.55215,-0.44952 1.12134,-1.42815 1.40871,-1.93262 0.25836,-0.37004 0.41971,-0.51604 0.74341,-0.94516 0.53268,-0.73039 0.90298,-1.17766 1.32661,-1.92047 2.00915,-4.46518 3.90977,-8.67101 7.92212,-11.75507 3.19937,4.75797 8.43624,7.72445 10.60573,13.26735 -2.22655,3.41136 -4.99427,7.02281 -7.52627,10.23363 -6.69146,3.19136 -9.85276,-0.94493 -13.85465,-5.4617 -0.50444,-0.8337 -0.91613,-0.58051 -0.62566,-1.48596 z"
   id="path35"
   sodipodi:nodetypes="ccccccccc" />
<path
   fill="#7691AC"
   opacity="1.000000"
   stroke="none"
   d=" M154.713928,7.670156   C153.874298,10.685373 152.287033,12.928515 149.456512,14.402597   C146.598053,15.891224 145.125671,18.893778 143.127335,21.737921   C139.261551,21.897943 135.542862,21.750820 131.384644,21.423512   C129.393173,14.475774 135.521149,11.045006 137.779526,5.582043   C143.522842,5.259655 148.954376,6.448129 154.713928,7.670156  z"
   id="path36" />
<path
   fill="#345657"
   opacity="1.000000"
   stroke="none"
   d=" M220.008087,74.031448   C221.844620,75.103592 222.752518,76.935623 223.122833,79.406799   C223.097687,79.957565 223.069672,80.165100 223.020218,80.686035   C221.601532,82.732285 219.585358,83.180435 217.281982,83.808746   C216.897293,84.321579 216.709656,84.582359 216.218552,84.891006   C208.510910,90.218102 200.683533,95.090385 196.347092,103.942795   C195.482605,104.367203 194.909515,104.504425 193.922638,104.130280   C193.612732,103.419594 193.661545,102.990356 193.873352,102.280869   C194.470917,101.581512 194.813965,101.113335 194.804779,100.188416   C195.777222,96.801437 196.796066,93.707199 198.016907,90.284683   C198.425446,89.633141 198.632278,89.310051 198.864746,88.700691   C198.818924,88.084320 198.747864,87.754471 198.839111,87.213745   C203.320786,86.240753 207.066391,85.415138 207.588821,79.572784   C207.844299,76.715607 211.747787,75.757782 214.484283,76.463112   C217.156326,77.151848 218.530945,76.292336 220.008087,74.031448  z"
   id="path37" />
<path
   fill="#6E9094"
   opacity="1.000000"
   stroke="none"
   d=" M158.218552,25.341909   C160.014893,20.332903 165.895386,20.218086 168.699249,16.261759   C169.394791,15.280334 170.831818,14.789343 171.079346,12.934482   C175.964050,13.806220 180.364822,16.069105 184.993683,18.603207   C182.805771,21.747946 179.255325,22.785332 176.173370,24.603050   C174.409653,25.643278 172.691284,27.143024 172.015274,29.716694   C167.474594,28.577354 162.974274,27.083994 158.218552,25.341909  z"
   id="path38" />
<path
   fill="#6b938a"
   opacity="1"
   stroke="none"
   d="m 177.12164,222.9625 c 4.36985,-2.39154 8.94841,-5.36742 13.43473,-8.09041 4.27755,3.15907 7.64865,7.36024 11.41295,11.23668 -2.95731,2.79622 -7.18587,5.28815 -11.06884,7.05872 -2.92308,1.23043 -4.18403,0.66138 -5.90616,-1.66197 -2.12637,-2.86871 -6.75138,-4.34232 -7.87268,-8.54302 z"
   id="path39"
   sodipodi:nodetypes="ccccsc" />
<path
   fill="#6cb1b5"
   opacity="1"
   stroke="none"
   d="m 233.427,192.09528 c -0.33598,-1.98986 -2.31924,-2.6884 -3.64696,-3.72211 -3.07286,-2.39241 -5.16163,-5.36102 -6.66734,-9.20592 -0.95531,-1.06547 -0.65088,-1.90308 -0.005,-3.0016 0.80598,-0.93715 1.70357,-1.14563 2.64299,-1.88028 2.29655,-0.96246 4.35248,-1.71094 6.77655,-2.50517 2.95894,1.97628 7.54031,0.39073 8.80221,4.85967 -1.8466,5.66499 -4.82359,10.4981 -7.90254,15.45541 z"
   id="path40"
   sodipodi:nodetypes="cscccccc" />
<path
   fill="#7291a3"
   opacity="1"
   stroke="none"
   d="m 156.55685,247.36081 c -3.76031,-4.49596 -7.47756,-9.16486 -10.87696,-14.05258 3.15987,-0.32462 5.80116,-1.05726 8.51451,-1.49997 7.33584,0.10888 14.58995,6.129 14.04663,11.88119 -4.12523,1.49371 -7.5286,2.56025 -11.68418,3.67136 z"
   id="path41"
   sodipodi:nodetypes="ccccc" />
<path
   fill="#385555"
   opacity="1.000000"
   stroke="none"
   d=" M182.763062,115.939774   C181.733795,115.966118 180.217896,115.652908 180.570648,115.118698   C183.054230,111.357628 181.062469,107.442482 181.296829,103.630516   C181.594116,98.795364 185.816071,95.815948 187.312653,91.442909   C187.956238,89.562378 189.672440,87.925568 190.205734,85.773117   C190.796066,83.390480 192.528168,82.731445 195.147461,82.981293   C193.332031,94.653152 188.915085,105.477821 182.763062,115.939774  z"
   id="path42" />
<path
   fill="#6d9e99"
   opacity="1"
   stroke="none"
   d="m 202.91319,204.60186 c 1.27775,-1.23282 2.3543,-2.47645 3.76749,-3.56582 3.31645,2.54764 5.9169,5.77541 9.97462,7.19522 1.22301,0.42793 2.06975,1.80442 1.56913,3.66755 -2.73011,3.21644 -5.26458,5.15348 -8.46288,7.62824 -0.18644,0.16398 -0.36139,0.34835 -0.64767,0.57542 -1.65651,1.31393 -12.358,-7.16733 -11.59793,-10.29393 2.06836,-1.76068 3.63328,-3.21199 5.39724,-5.20668 z"
   id="path43"
   sodipodi:nodetypes="ccsccscc" />
<path
   fill="#6AB8C0"
   opacity="1.000000"
   stroke="none"
   d=" M227.921051,87.385696   C229.236877,85.262253 229.443970,82.798080 232.891876,82.581299   C234.866165,82.457153 238.421219,80.784889 237.198715,76.793640   C236.816483,75.545662 237.929031,75.123482 239.368256,75.010590   C241.654800,78.454704 243.046738,82.134796 244.225067,86.276695   C238.423569,88.299553 237.370636,95.103157 232.095566,97.875610   C231.360962,98.101341 231.013657,97.952194 230.789307,97.297531   C230.284409,95.214867 229.742722,93.437126 229.213104,91.308792   C229.277023,90.778648 229.328873,90.599098 229.196289,90.208420   C228.172165,89.462692 228.078018,88.578888 227.921051,87.385696  z"
   id="path44" />
<path
   fill="#71929a"
   opacity="1"
   stroke="none"
   d="m 168.19631,243.7725 c 0.0927,-2.98851 -1.23801,-4.82803 -3.63265,-6.31666 -3.0455,-1.89325 -6.75671,-3.7531 -10.24582,-5.62874 3.4871,-1.21597 6.95485,-2.03551 10.46846,-3.66832 5.40873,-1.47523 8.3728,2.78463 11.6308,5.56697 1.46956,1.25502 2.82493,2.94118 3.85001,5.07075 -3.732,2.15395 -7.79571,3.52171 -12.0708,4.976 z"
   id="path45"
   sodipodi:nodetypes="csccscc" />
<path
   fill="#6e9291"
   opacity="1"
   stroke="none"
   d="m 180.24998,238.84416 c -5.09468,-3.69188 -8.08981,-9.06686 -14.76129,-10.76189 -0.28375,-0.33525 1.79838,-0.7381 2.24541,-1.03144 4.52221,-1.74538 5.69264,-2.76517 9.69389,-4.12425 4.57894,3.39665 7.40448,8.65019 13.63242,10.18754 -3.67567,2.34983 -6.81386,3.95489 -10.81043,5.73004 z"
   id="path46"
   sodipodi:nodetypes="cccccc" />
<path
   fill="#6BC0CA"
   opacity="1.000000"
   stroke="none"
   d=" M235.474976,133.218384   C236.414490,133.257080 237.493347,133.503632 237.494247,133.754120   C237.522400,141.478317 244.886795,142.808105 249.315475,147.156860   C249.319565,150.013199 248.952408,152.706192 248.345703,155.716858   C243.854126,157.025375 238.691437,154.725403 236.058136,150.650894   C235.165527,149.269791 234.652115,147.676773 233.524445,145.956131   C233.712906,141.491592 232.644623,137.206223 235.474976,133.218384  z"
   id="path47" />
<path
   fill="#6BA19D"
   opacity="1.000000"
   stroke="none"
   d=" M223.279861,49.587730   C222.842484,49.908840 222.188721,49.963898 221.534088,49.977634   C213.233566,50.151833 213.233536,50.150318 210.973846,58.716133   C207.787186,57.213299 206.471329,53.563103 203.335785,51.200806   C203.006592,49.628555 202.955170,48.231216 202.974274,46.418564   C206.591614,43.877823 209.843384,41.261574 214.029816,39.718777   C217.733398,42.566143 220.646759,45.706692 223.279861,49.587730  z"
   id="path48" />
<path
   fill="#6ABBC4"
   opacity="1.000000"
   stroke="none"
   d=" M233.860916,146.207336   C237.176926,149.569626 239.385864,154.055771 244.538528,155.252289   C245.478119,155.470459 246.403015,155.751907 247.720413,156.019318   C248.330612,158.712601 245.960617,159.202652 244.381989,160.100235   C240.228973,162.461655 235.923691,164.555313 231.336090,166.816101   C229.735214,166.109177 229.440308,164.930130 229.760681,163.229858   C230.007675,162.180038 230.071976,161.466553 230.143768,160.394669   C230.142944,159.618042 230.218201,159.216568 230.533234,158.564667   C231.095428,157.601822 231.360855,156.866714 231.274139,155.727783   C231.271713,154.987854 231.339462,154.568192 231.578766,153.852570   C232.763046,152.252640 232.739136,150.691391 232.805740,148.794739   C232.926849,147.716766 233.154312,147.037888 233.860916,146.207336  z"
   id="path49" />
<path
   fill="#7C90BF"
   opacity="1.000000"
   stroke="none"
   d=" M118.403748,250.066376   C118.228210,245.527573 113.997948,243.710037 111.617302,241.915665   C108.630051,239.664062 107.959320,238.542694 109.862717,235.640121   C110.176025,235.162354 109.967400,234.342331 110.001648,233.283569   C111.172646,232.931519 112.341980,232.976379 113.952133,233.026886   C118.873154,239.220093 124.036919,244.817276 130.425278,250.462891   C125.799217,251.240784 122.303810,250.685165 118.403748,250.066376  z"
   id="path50" />
<path
   fill="#6c988f"
   opacity="1"
   stroke="none"
   d="m 197.54776,209.79187 c 0.47215,1.28029 0.91403,2.85788 2.30777,3.04031 4.50626,0.58989 6.75556,3.80519 9.27599,7.27661 -2.07466,2.00029 -4.6521,3.905 -7.28984,6.17679 -4.9776,-2.43211 -8.33769,-6.70246 -11.28053,-11.38143 1.51576,-1.26174 2.19085,-1.65143 3.22517,-2.76823 1.27299,-0.9272 2.36386,-1.58572 3.76144,-2.34405 z"
   id="path51"
   sodipodi:nodetypes="csccccc" />
<path
   fill="#385758"
   opacity="1.000000"
   stroke="none"
   d=" M224.158112,175.631622   C223.734756,176.783157 223.338455,177.556015 222.879242,178.650848   C220.414490,182.553391 218.012665,186.133942 215.315720,189.878311   C214.988358,187.076202 212.413116,187.125366 210.579346,186.331192   C207.809265,185.131546 204.569397,184.513107 204.007172,180.355286   C210.054886,178.320404 216.107468,176.660385 222.532043,174.902237   C223.449814,174.614777 223.876846,174.764435 224.158112,175.631622  z"
   id="path52" />
<path
   fill="#6ca39f"
   opacity="1"
   stroke="none"
   d="m 218.30807,211.86703 c -0.31288,-2.06529 -1.94117,-3.05049 -3.66224,-3.4413 -3.8781,-0.88061 -6.09554,-3.69438 -7.83503,-7.25713 1.1973,-1.87719 2.6373,-3.31211 3.99648,-5.13593 0.26796,-0.39844 0.81316,-1.15376 1.13444,-1.03897 1.36287,0.69098 2.88463,1.54086 3.23914,2.38194 2.04897,4.86115 6.2345,4.49669 10.72133,4.70813 -1.89236,3.42308 -4.24623,6.80585 -7.59412,9.78326 z"
   id="path53"
   sodipodi:nodetypes="cscccscc" />
<path
   fill="#345556"
   opacity="1.000000"
   stroke="none"
   d=" M194.614319,107.755142   C194.983017,110.124229 195.088089,112.004051 193.092407,113.792465   C190.704132,115.932686 189.943069,119.252449 190.035767,122.481606   C190.248856,129.906525 188.892227,137.471863 191.910400,144.677460   C192.209518,145.391602 191.982483,146.326141 191.999512,147.579193   C188.968170,146.173309 187.487610,142.520172 187.463791,139.956680   C187.410141,134.182785 184.614899,128.294434 187.616714,122.524582   C188.303604,121.204323 188.296906,119.632324 186.973846,118.057968   C188.130569,114.661255 189.615265,111.491936 191.352676,108.094238   C192.436356,107.425049 193.293732,107.179314 194.614319,107.755142  z"
   id="path54" />
<path
   fill="#6F9E99"
   opacity="1.000000"
   stroke="none"
   d=" M214.202499,39.532085   C210.918106,41.994728 208.297058,45.615040 203.416275,45.996437   C202.272797,40.516541 201.500809,35.029827 200.566971,28.392839   C206.273483,31.579742 210.118317,35.448036 214.202499,39.532085  z"
   id="path55" />
<path
   fill="#2D3647"
   opacity="1.000000"
   stroke="none"
   d=" M90.909149,181.601624   C85.920189,183.283218 84.613106,182.464249 84.040314,177.512817   C83.868294,176.025803 83.881538,174.604675 82.884819,173.304718   C81.442062,171.423019 79.978523,169.016998 81.482155,166.936829   C83.196754,164.564789 85.744003,166.857681 88.319870,166.979156   C89.197693,171.769485 89.603271,176.561356 90.909149,181.601624  z"
   id="path56" />
<path
   fill="#345556"
   opacity="1"
   stroke="none"
   d="m 191.71439,150.2731 c 2.78195,3.94292 6.67059,7.21184 8.14886,12.17467 0.81155,2.72452 3.21005,4.59325 5.8157,5.86107 2.17199,1.05679 3.25637,2.71744 3.32016,5.48297 0.005,0.3858 -0.13153,0.33126 -0.23852,0.31896 -3.60342,-1.41518 -5.77899,-4.81145 -9.77014,-5.49773 -0.58818,-0.10114 -1.18283,-1.52716 -1.35768,-2.4217 -0.59426,-3.04028 -1.93502,-5.25115 -4.70462,-7.04415 -3.15682,-2.04367 -1.99111,-5.53901 -1.21376,-8.87409 z"
   id="path57"
   sodipodi:nodetypes="cssccsssc" />
<path
   fill="#414F4E"
   opacity="1.000000"
   stroke="none"
   d=" M135.360901,91.372375   C136.190765,87.264015 138.279984,83.567406 139.007172,79.105042   C143.057999,82.752083 145.862122,87.262520 148.925766,92.316338   C144.136215,92.027168 139.966476,91.775421 135.360901,91.372375  z"
   id="path58" />
<path
   fill="#6fb8bf"
   opacity="1"
   stroke="none"
   d="m 241.31638,176.8764 c -0.44066,-1.66525 -1.77163,-1.98492 -3.33431,-1.86406 -2.16191,0.16722 -4.37717,-1.07847 -5.6478,-3.17506 3.10693,-1.56722 6.64534,-3.38503 9.70888,-4.98497 0.81653,-0.42644 1.73201,-1.36522 2.63757,-0.40926 0.79332,0.83747 0.20234,1.8825 -0.15329,2.79016 -0.96727,2.46885 -1.96984,4.92386 -3.21105,7.64319 z"
   id="path59"
   sodipodi:nodetypes="cscsssc" />
<path
   fill="#2D3647"
   opacity="1.000000"
   stroke="none"
   d=" M93.747635,192.656281   C88.465424,192.994904 89.421196,190.257523 91.535492,187.085541   C92.520836,188.767532 93.143562,190.535614 93.747635,192.656281  z"
   id="path60" />
<path
   fill="#345454"
   opacity="1.000000"
   stroke="none"
   d=" M195.002075,107.649300   C194.150330,107.979317 193.301270,107.958939 192.028809,107.902214   C191.951538,106.607483 191.901749,105.192543 193.300293,104.047440   C194.104889,103.892189 194.645859,103.935547 195.593719,103.989456   C195.668671,105.099640 195.336716,106.199272 195.002075,107.649300  z"
   id="path61" />
<path
   fill="#67AEB4"
   opacity="1.000000"
   stroke="none"
   d=" M229.687134,163.126892   C230.267471,163.994186 230.591568,165.094849 230.954376,166.536041   C230.210159,167.252869 229.427216,167.629181 228.318695,167.991364   C227.910843,166.263367 228.697128,164.819992 229.687134,163.126892  z"
   id="path62" />
<path
   fill="#6AA8A7"
   opacity="1.000000"
   stroke="none"
   d=" M224.431702,175.964966   C223.888641,175.709595 223.646240,175.408920 223.153931,174.956177   C223.456436,173.805878 224.418747,173.984772 225.651749,174.018463   C225.922226,174.926224 225.673965,175.659088 224.431702,175.964966  z"
   id="path63" />
<path
   fill="#345454"
   opacity="1.000000"
   stroke="none"
   d=" M194.492493,100.049210   C195.888931,100.637825 196.074997,101.325577 194.339066,101.960342   C194.099762,101.401321 194.163193,100.802032 194.492493,100.049210  z"
   id="path64" />
<path
   fill="#365452"
   opacity="1.000000"
   stroke="none"
   d=" M198.663895,88.609238   C198.800766,88.789223 198.711548,89.164284 198.420624,89.747879   C198.291855,89.572380 198.364822,89.188347 198.663895,88.609238  z"
   id="path65" />
<path
   fill="#344F4C"
   opacity="1.000000"
   stroke="none"
   d=" M197.933044,68.751907   C197.682358,68.781883 197.547592,68.592735 197.468613,68.382614   C197.449814,68.332588 197.617584,68.212440 197.870514,68.060555   C198.050781,68.172745 198.060089,68.348923 197.933044,68.751907  z"
   id="path66" />
<path
   fill="#6D948C"
   opacity="1.000000"
   stroke="none"
   d=" M198.715469,67.101517   C198.485611,66.983551 198.419250,66.670250 198.511932,66.159454   C198.740295,66.276695 198.809631,66.591431 198.715469,67.101517  z"
   id="path67" />
<path
   fill="#385758"
   opacity="1.000000"
   stroke="none"
   d=" M202.740509,180.154816   C202.846222,180.566284 202.600021,180.693985 202.144196,180.440552   C202.042679,180.312103 202.496704,180.123764 202.740509,180.154816  z"
   id="path68" />


<path
   fill="#7C90BF"
   opacity="1.000000"
   stroke="none"
   d=" M109.249329,232.692719   C109.094025,232.807266 108.761108,232.726578 108.254341,232.458755   C108.410904,232.346909 108.741302,232.422195 109.249329,232.692719  z"
   id="path71" />
<path
   fill="#6E9094"
   opacity="1.000000"
   stroke="none"
   d=" M155.321060,24.672880   C155.334259,24.332838 155.581131,24.309969 155.932495,24.615360   C156.024643,24.724957 155.542374,24.771389 155.321060,24.672880  z"
   id="path72" />
<path
   fill="#6E9094"
   opacity="1.000000"
   stroke="none"
   d=" M152.128784,24.193684   C152.314560,24.053417 152.524277,24.174419 152.816162,24.488247   C152.927307,24.630854 152.499634,24.698864 152.499634,24.698864   C152.499634,24.698864 152.181717,24.404734 152.128784,24.193684  z"
   id="path73" />
<path
   fill="#386166"
   opacity="1.000000"
   stroke="none"
   d=" M232.545990,153.701965   C232.268829,154.467590 232.164444,154.905258 232.065338,155.681641   C232.026917,156.876007 231.748947,157.669785 231.266342,158.723618   C230.961090,159.285065 230.779816,159.549133 230.355911,159.911713   C218.164551,158.172501 213.897629,154.350357 212.032562,142.522003   C211.082092,136.494034 207.404022,131.010162 208.869781,124.446426   C209.419464,121.984940 209.207184,119.501312 211.754135,118.058090   C212.961182,117.374123 212.951599,116.194817 213.010513,115.015549   C213.051376,114.197220 212.943726,112.891541 213.379242,112.644638   C220.223999,108.764046 223.444778,101.028931 230.473053,96.999542   C231.013107,97.256821 231.203659,97.518463 231.596069,97.913681   C231.881332,99.096886 231.968277,100.143936 232.052734,101.585251   C232.021072,102.545273 232.119690,103.079338 232.598816,103.786606   C233.141449,106.417908 233.527161,108.820511 233.891174,111.631592   C232.242859,116.151245 228.425659,118.549591 226.050064,122.179596   C219.995651,131.430984 221.805161,141.439728 231.322296,147.322617   C231.890503,147.673859 232.453995,148.023804 233.132782,148.794586   C233.713043,150.605988 233.350952,152.009338 232.545990,153.701965  z"
   id="path74" />
<path
   fill="#6BB1B6"
   opacity="1.000000"
   stroke="none"
   d=" M229.026825,90.246040   C229.168167,90.242729 229.324463,90.488167 229.352966,90.845901   C229.225189,90.958199 229.041763,90.494789 229.026825,90.246040  z"
   id="path75" />
<path
   fill="#718F9F"
   opacity="1.000000"
   stroke="none"
   d=" M117.409546,21.961401   C119.236862,20.201849 121.745972,21.200705 124.445007,21.266438   C122.594780,23.497133 120.115952,21.868088 117.409546,21.961401  z"
   id="path76" />
<path
   fill="#355859"
   opacity="1.000000"
   stroke="none"
   d=" M217.331635,84.143692   C217.550323,80.862129 220.689468,82.389961 222.627258,81.041367   C222.481750,84.142357 221.204819,86.052299 217.331635,84.143692  z"
   id="path77" />
<path
   fill="#3A6A6E"
   opacity="1.000000"
   stroke="none"
   d=" M233.249146,149.251068   C221.710876,145.220703 217.692993,131.567642 224.599060,122.208427   C227.248489,118.617889 229.791428,115.106209 233.581665,112.191483   C236.155151,115.233017 234.266205,119.035454 235.637634,122.707443   C235.875443,126.043495 235.857574,129.071304 235.838913,132.553894   C235.267715,137.063461 234.697296,141.118256 234.141998,145.580963   C234.066803,146.682800 233.976532,147.376724 233.880157,148.421051   C233.768066,149.018570 233.662048,149.265701 233.249146,149.251068  z"
   id="path78" />

<path
   fill="#385758"
   opacity="1.000000"
   stroke="none"
   d=" M213.622131,192.101212   C213.814575,192.312164 213.687241,192.584335 213.207657,192.885406   C213.068985,192.684479 213.217972,192.433853 213.622131,192.101212  z"
   id="path80" />
<path
   fill="#3A6A6E"
   opacity="1.000000"
   stroke="none"
   d=" M232.800323,103.727852   C231.831924,103.801392 230.861649,103.618843 231.820068,102.134308   C232.315140,102.466476 232.580017,102.953438 232.800323,103.727852  z"
   id="path81" />
<path
   fill="#67AEB4"
   opacity="1.000000"
   stroke="none"
   d=" M232.957733,149.358978   C232.942261,148.989304 233.413483,148.901215 233.643784,148.836334   C233.792877,150.478256 234.709686,152.351761 232.704285,153.911194   C232.573212,152.596176 232.773209,151.162430 232.957733,149.358978  z"
   id="path82" />
<path
   fill="#67AEB4"
   opacity="1.000000"
   stroke="none"
   d=" M231.362167,158.859772   C231.259567,158.147888 231.414703,157.300842 231.820236,156.237061   C233.521927,157.188690 232.465332,157.939041 231.362167,158.859772  z"
   id="path83" />
</svg>
